<mxfile host="app.diagrams.net" modified="2024-05-23T06:06:12.912Z" agent="Mozilla/5.0 (Macintosh; Intel Mac OS X 10_15_7) AppleWebKit/537.36 (KHTML, like Gecko) Chrome/124.0.0.0 Safari/537.36" version="24.4.6" etag="ex2Dao6dI05apbmQw2Y2" type="github">
  <diagram name="Page-1" id="mpssyHD3G2SIo2L7_zNd">
    <mxGraphModel>
      <root>
        <mxCell id="0" />
        <mxCell id="1" parent="0" />
      </root>
    </mxGraphModel>
  </diagram>
</mxfile>
